<svg width="661" height="657" viewBox="0 0 661 657" fill="none" xmlns="http://www.w3.org/2000/svg">
<path d="M538.27 516.725C533.298 517.233 528.296 517.153 523.337 516.488C468.822 509.333 711.515 595.987 651 640.5C567.308 702.05 119.218 564.738 61.3604 536.072C17.1532 514.178 265.5 516.488 7.98828 410.214C8.18237 409.504 8.38184 408.794 8.59209 408.083C17.2664 378.169 -12.6111 302.91 8.59217 290.5C27.0729 279.684 101.055 308.946 113.061 265.547C118.021 247.626 92.1639 188.695 101 174C124.662 134.646 216.809 160.635 302 161C316.936 161.086 335.936 127.298 335.936 127.298C367.059 139.887 395.168 165.481 416.603 200.963C430.28 223.594 445.656 199.248 475 200.963C515.724 203.357 595.345 160.905 624.5 200.963C625.341 202.115 590.537 313.618 591.367 314.789C499.5 290.5 607.223 509.57 538.27 516.725Z" fill="#D800B9"/>
<path opacity="0.7" d="M190.362 547.434C194.438 547.434 197.742 544.133 197.742 540.061C197.742 535.989 194.438 532.688 190.362 532.688C186.287 532.688 182.983 535.989 182.983 540.061C182.983 544.133 186.287 547.434 190.362 547.434Z" fill="url(#paint0_linear_0_1)"/>
<path opacity="0.2" d="M190.363 547.102C194.255 547.102 197.41 543.95 197.41 540.061C197.41 536.172 194.255 533.019 190.363 533.019C186.47 533.019 183.315 536.172 183.315 540.061C183.315 543.95 186.47 547.102 190.363 547.102Z" fill="black"/>
<path d="M150.606 398.981C152.113 398.981 153.333 397.761 153.333 396.256C153.333 394.751 152.113 393.531 150.606 393.531C149.1 393.531 147.879 394.751 147.879 396.256C147.879 397.761 149.1 398.981 150.606 398.981Z" fill="white"/>
<path d="M567.686 496.081C568.527 496.081 569.21 495.399 569.21 494.558C569.21 493.718 568.527 493.036 567.686 493.036C566.844 493.036 566.162 493.718 566.162 494.558C566.162 495.399 566.844 496.081 567.686 496.081Z" fill="white"/>
<path d="M480.527 359.312C481.368 359.312 482.051 358.63 482.051 357.79C482.051 356.949 481.368 356.267 480.527 356.267C479.685 356.267 479.003 356.949 479.003 357.79C479.003 358.63 479.685 359.312 480.527 359.312Z" fill="white"/>
<path d="M604.046 426.094C604.888 426.094 605.57 425.412 605.57 424.571C605.57 423.73 604.888 423.049 604.046 423.049C603.205 423.049 602.522 423.73 602.522 424.571C602.522 425.412 603.205 426.094 604.046 426.094Z" fill="white"/>
<path d="M123.78 491.39H121.352V488.965H120.363V491.39H117.935V492.379H120.363V494.799H121.352V492.379H123.78V491.39Z" fill="white"/>
<path d="M184.737 490.322H182.31V487.896H181.32V490.322H178.893V491.31H181.32V493.73H182.31V491.31H184.737V490.322Z" fill="white"/>
<path d="M271.896 539.473H269.469V537.048H268.479V539.473H266.052V540.462H268.479V542.882H269.469V540.462H271.896V539.473Z" fill="white"/>
<path d="M551.034 346.341H549.928V345.235H549.478V346.341H548.372V346.789H549.478V347.895H549.928V346.789H551.034V346.341Z" fill="white"/>
<path d="M457.994 412.588H456.887V411.482H456.438V412.588H455.331V413.037H456.438V414.143H456.887V413.037H457.994V412.588Z" fill="white"/>
<path d="M79.4141 454.26H78.3072V453.154H77.8581V454.26H76.7512V454.709H77.8581V455.814H78.3072V454.709H79.4141V454.26Z" fill="white"/>
<path d="M124.865 545.083H123.758V543.977H123.309V545.083H122.202V545.532H123.309V546.637H123.758V545.532H124.865V545.083Z" fill="white"/>
<path d="M200.26 417.93H199.153V416.825H198.704V417.93H197.597V418.379H198.704V419.485H199.153V418.379H200.26V417.93Z" fill="white"/>
<path d="M214.698 371.985H213.591V370.879H213.142V371.985H212.035V372.433H213.142V373.539H213.591V372.433H214.698V371.985Z" fill="white"/>
<path opacity="0.7" d="M442.049 478.013C445.451 478.013 448.209 475.257 448.209 471.858C448.209 468.459 445.451 465.703 442.049 465.703C438.647 465.703 435.889 468.459 435.889 471.858C435.889 475.257 438.647 478.013 442.049 478.013Z" fill="url(#paint1_linear_0_1)"/>
<path opacity="0.2" d="M442.048 477.559C445.2 477.559 447.754 475.006 447.754 471.858C447.754 468.71 445.2 466.158 442.048 466.158C438.897 466.158 436.343 468.71 436.343 471.858C436.343 475.006 438.897 477.559 442.048 477.559Z" fill="black"/>
<path opacity="0.2" d="M457.411 518.359C460.934 518.359 463.79 515.506 463.79 511.986C463.79 508.466 460.934 505.612 457.411 505.612C453.888 505.612 451.032 508.466 451.032 511.986C451.032 515.506 453.888 518.359 457.411 518.359Z" fill="black"/>
<path opacity="0.7" d="M400.244 339.032C400.288 325.642 397.077 312.442 390.887 300.566C387.951 294.988 385.272 291.526 383.208 289.394C382.42 288.562 381.39 287.998 380.264 287.781C379.138 287.565 377.972 287.707 376.931 288.187C376.098 288.482 375.346 288.967 374.733 289.603C371.947 292.488 369.429 296.302 367.247 300.357C360.738 312.516 357.362 326.103 357.424 339.892V348.162H352.114V251.991C352.114 231.839 347.601 211.96 338.746 194.329C334.554 185.974 330.726 180.781 327.79 177.591C327.077 176.779 326.2 176.129 325.215 175.683C324.231 175.238 323.163 175.007 322.082 175.007C321.001 175.007 319.933 175.238 318.949 175.683C317.964 176.129 317.087 176.779 316.374 177.591C312.396 181.913 308.802 187.63 305.68 193.704C296.381 211.719 291.659 232.17 291.659 252.91V348.125H287.071V339.454C287.13 325.674 283.754 312.097 277.249 299.946C275.051 295.891 272.532 292.076 269.763 289.191C268.958 288.338 267.901 287.764 266.746 287.554C265.591 287.345 264.4 287.51 263.346 288.027L263.539 288.128C262.867 288.427 262.259 288.851 261.747 289.378C259.689 291.515 257.01 294.972 254.074 300.55C247.884 312.426 244.672 325.626 244.717 339.016V482.73H261.1L259.293 494.542V529.873H272.693V494.542L270.902 482.725H287.05V351.833H291.638V482.158H304.722L302.846 494.542V529.873H316.246V494.542L314.369 482.142H332.014L330.127 494.542V529.873H343.527V494.542L341.65 482.142H352.098V351.849H357.408V482.938H361.713V482.741H375.947L374.161 494.542V529.873H387.561V494.542L385.769 482.725H400.244V339.032Z" fill="url(#paint2_linear_0_1)"/>
<path d="M275.35 487.672H262.662L264.929 472.28H273.083L275.35 487.672Z" fill="#535461"/>
<path opacity="0.1" d="M264.298 478.392H273.714L273.083 474.091H264.929L264.298 478.392Z" fill="black"/>
<path d="M384.085 487.672H371.402L373.664 472.28H381.823L384.085 487.672Z" fill="#535461"/>
<path opacity="0.1" d="M373.033 478.392H382.454L381.823 474.091H373.664L373.033 478.392Z" fill="black"/>
<path d="M316.577 487.672H303.894L306.155 472.28H314.315L316.577 487.672Z" fill="#535461"/>
<path opacity="0.1" d="M305.524 478.392H314.946L314.315 474.091H306.155L305.524 478.392Z" fill="black"/>
<path d="M342.404 487.672H329.72L331.982 472.28H340.137L342.404 487.672Z" fill="#535461"/>
<path opacity="0.1" d="M331.352 478.392H340.773L340.137 474.091H331.983L331.352 478.392Z" fill="black"/>
<path d="M365.964 345.08H275.351V348.702H365.964V345.08Z" fill="#535461"/>
<path d="M249.069 339.192L258.587 339.24V350.962H249.069V339.192Z" fill="#535461"/>
<path d="M279.425 339.192L288.943 339.24V350.962H279.425V339.192Z" fill="#535461"/>
<path d="M355.997 339.192L365.509 339.24V350.962H355.997V339.192Z" fill="#535461"/>
<path d="M386.352 339.192L395.865 339.24V350.962H386.352V339.192Z" fill="#535461"/>
<path opacity="0.1" d="M279.644 298.162C277.559 294.213 275.179 290.5 272.538 287.69C271.792 286.864 270.795 286.305 269.701 286.099C268.606 285.894 267.475 286.053 266.479 286.552C267.053 286.838 267.571 287.223 268.009 287.69C270.645 290.5 273.03 294.213 275.11 298.162C281.28 310.042 284.471 323.243 284.409 336.628V475.972H288.943V336.633C289.004 323.247 285.813 310.045 279.644 298.162V298.162Z" fill="black"/>
<path opacity="0.1" d="M368.92 298.546C371 294.598 373.385 290.885 376.021 288.075C376.514 287.543 377.111 287.117 377.775 286.825C376.795 286.396 375.705 286.286 374.659 286.511C373.613 286.735 372.665 287.282 371.947 288.075C369.305 290.885 366.921 294.598 364.841 298.546C358.673 310.428 355.482 323.628 355.542 337.012V476.378H359.622V337.023C359.558 323.634 362.749 310.43 368.92 298.546V298.546Z" fill="black"/>
<path d="M269.18 522.078H268.832C267.196 522.078 265.626 521.428 264.469 520.272C263.312 519.116 262.662 517.548 262.662 515.913V487.672H275.35V515.913C275.35 517.548 274.7 519.116 273.543 520.272C272.386 521.428 270.816 522.078 269.18 522.078Z" fill="url(#paint3_linear_0_1)"/>
<path d="M310.412 522.078H310.059C308.423 522.076 306.855 521.426 305.699 520.27C304.543 519.114 303.894 517.547 303.894 515.913V487.672H316.577V515.913C316.577 517.547 315.928 519.114 314.772 520.27C313.616 521.426 312.047 522.076 310.412 522.078Z" fill="url(#paint4_linear_0_1)"/>
<path d="M336.233 522.078H335.875C334.241 522.074 332.676 521.422 331.522 520.266C330.368 519.111 329.72 517.545 329.72 515.913V487.672H342.404V515.913C342.404 517.548 341.754 519.116 340.597 520.272C339.439 521.428 337.87 522.078 336.233 522.078Z" fill="url(#paint5_linear_0_1)"/>
<path d="M377.92 522.078H377.583C376.772 522.079 375.968 521.921 375.219 521.612C374.469 521.302 373.787 520.849 373.213 520.276C372.639 519.703 372.183 519.023 371.873 518.274C371.562 517.526 371.402 516.723 371.402 515.913V487.672H384.085V515.913C384.085 517.547 383.436 519.114 382.28 520.27C381.124 521.426 379.556 522.077 377.92 522.078Z" fill="url(#paint6_linear_0_1)"/>
<path d="M448.941 341.329C447.456 339.381 445.598 337.746 443.476 336.521V336.521C441.038 335.116 438.309 334.29 435.5 334.107C432.691 333.925 429.878 334.39 427.277 335.467C424.677 336.543 422.36 338.203 420.504 340.318C418.648 342.433 417.304 344.945 416.575 347.662C415.847 350.378 415.753 353.226 416.302 355.984C416.85 358.743 418.027 361.338 419.739 363.57C421.452 365.802 423.656 367.61 426.18 368.855C428.704 370.1 431.48 370.749 434.295 370.751C434.686 370.751 435.076 370.751 435.456 370.708C438.764 370.499 441.954 369.399 444.686 367.525C447.419 365.65 449.593 363.071 450.976 360.062C452.36 357.052 452.902 353.724 452.544 350.432C452.187 347.139 450.944 344.005 448.946 341.361L448.941 341.329Z" fill="url(#paint7_linear_0_1)"/>
<path opacity="0.2" d="M451.641 352.378C451.641 356.785 449.959 361.028 446.94 364.241C443.92 367.455 439.789 369.398 435.386 369.677C435.028 369.677 434.659 369.714 434.29 369.714C431.626 369.716 428.998 369.105 426.609 367.929C424.22 366.753 422.134 365.044 420.512 362.933C418.89 360.822 417.776 358.367 417.256 355.757C416.736 353.148 416.825 350.453 417.514 347.883C418.203 345.313 419.476 342.935 421.232 340.935C422.988 338.935 425.182 337.365 427.643 336.348C430.104 335.331 432.766 334.893 435.424 335.068C438.081 335.244 440.663 336.028 442.968 337.36V337.36C444.978 338.525 446.734 340.08 448.134 341.933V341.933C450.414 344.938 451.646 348.607 451.641 352.378Z" fill="black"/>
<path opacity="0.1" d="M430.017 341.377C429.12 341.763 428.255 342.218 427.429 342.74C426.878 343.04 426.404 343.465 426.044 343.979C425.866 344.238 425.768 344.544 425.762 344.858C425.757 345.173 425.844 345.482 426.012 345.747C426.435 346.324 427.248 346.41 427.964 346.453C428.717 346.548 429.481 346.472 430.199 346.228C430.684 345.989 431.125 345.669 431.504 345.283L432.996 343.931C433.531 343.461 434.065 342.814 433.857 342.152C433.733 341.915 433.553 341.713 433.332 341.564C433.11 341.415 432.855 341.323 432.589 341.297C431.303 341.047 429.97 341.281 428.846 341.954" fill="black"/>
<path opacity="0.1" d="M423.788 360.135C424.293 360.135 424.702 359.726 424.702 359.221C424.702 358.717 424.293 358.308 423.788 358.308C423.283 358.308 422.874 358.717 422.874 359.221C422.874 359.726 423.283 360.135 423.788 360.135Z" fill="black"/>
<path opacity="0.1" d="M442.353 356.785C444.202 356.785 445.701 355.288 445.701 353.441C445.701 351.594 444.202 350.096 442.353 350.096C440.504 350.096 439.006 351.594 439.006 353.441C439.006 355.288 440.504 356.785 442.353 356.785Z" fill="black"/>
<path opacity="0.1" d="M448.166 341.933C448.156 342.807 447.895 343.66 447.414 344.391C446.932 345.121 446.251 345.698 445.451 346.053C444.651 346.407 443.766 346.525 442.901 346.391C442.036 346.257 441.228 345.878 440.573 345.298C439.917 344.719 439.443 343.963 439.205 343.122C438.967 342.28 438.976 341.388 439.231 340.552C439.487 339.715 439.977 338.97 440.644 338.404C441.312 337.838 442.127 337.475 442.995 337.36V337.36C445.007 338.524 446.765 340.079 448.166 341.933Z" fill="black"/>
<path opacity="0.1" d="M448.476 362.357C446.983 364.48 445.032 366.24 442.766 367.507C440.5 368.774 437.978 369.516 435.386 369.677C435.386 369.436 435.354 369.196 435.354 368.95C435.355 367.429 435.78 365.937 436.579 364.643C437.379 363.348 438.523 362.301 439.883 361.617C441.244 360.933 442.767 360.641 444.285 360.772C445.802 360.902 447.253 361.451 448.476 362.357V362.357Z" fill="black"/>
<path d="M211.912 440.3C210.876 438.932 209.578 437.784 208.094 436.923V436.923C206.39 435.924 204.478 435.332 202.508 435.193C200.537 435.053 198.561 435.37 196.733 436.118C194.905 436.867 193.275 438.027 191.969 439.508C190.663 440.989 189.718 442.752 189.205 444.658C188.693 446.564 188.628 448.563 189.016 450.498C189.404 452.434 190.233 454.254 191.44 455.816C192.647 457.379 194.199 458.642 195.975 459.507C197.75 460.372 199.702 460.816 201.677 460.804C201.95 460.804 202.212 460.804 202.49 460.778C204.794 460.623 207.013 459.849 208.914 458.54C210.815 457.23 212.327 455.432 213.291 453.335C214.254 451.238 214.634 448.921 214.389 446.626C214.145 444.332 213.285 442.147 211.901 440.3H211.912Z" fill="url(#paint8_linear_0_1)"/>
<path opacity="0.2" d="M213.794 448.009C213.793 451.084 212.62 454.044 210.514 456.286C208.407 458.528 205.524 459.883 202.453 460.078C202.201 460.078 201.918 460.078 201.688 460.078C199.831 460.077 198 459.65 196.335 458.829C194.67 458.009 193.216 456.816 192.086 455.344C190.956 453.873 190.18 452.161 189.817 450.341C189.455 448.522 189.517 446.644 189.997 444.852C190.478 443.06 191.364 441.403 192.589 440.008C193.813 438.613 195.341 437.518 197.057 436.808C198.772 436.098 200.627 435.792 202.48 435.912C204.333 436.033 206.133 436.578 207.741 437.506V437.506C209.145 438.322 210.371 439.412 211.345 440.711C212.939 442.81 213.8 445.374 213.794 448.009V448.009Z" fill="black"/>
<path opacity="0.1" d="M198.704 440.337C198.079 440.603 197.476 440.919 196.902 441.283C196.52 441.496 196.189 441.792 195.934 442.148C195.816 442.332 195.752 442.546 195.752 442.765C195.752 442.984 195.816 443.198 195.934 443.382C196.112 443.557 196.325 443.692 196.56 443.777C196.794 443.862 197.044 443.895 197.293 443.874C197.818 443.942 198.352 443.889 198.854 443.719C199.194 443.551 199.503 443.327 199.768 443.056L200.806 442.116C201.169 441.785 201.565 441.336 201.405 440.877C201.323 440.708 201.198 440.565 201.043 440.46C200.889 440.355 200.709 440.292 200.522 440.278C199.627 440.103 198.699 440.267 197.918 440.738" fill="black"/>
<path opacity="0.1" d="M194.357 453.416C194.708 453.416 194.993 453.131 194.993 452.78C194.993 452.429 194.708 452.144 194.357 452.144C194.006 452.144 193.721 452.429 193.721 452.78C193.721 453.131 194.006 453.416 194.357 453.416Z" fill="black"/>
<path opacity="0.1" d="M207.313 451.086C208.604 451.086 209.65 450.041 209.65 448.752C209.65 447.462 208.604 446.417 207.313 446.417C206.022 446.417 204.976 447.462 204.976 448.752C204.976 450.041 206.022 451.086 207.313 451.086Z" fill="black"/>
<path opacity="0.1" d="M211.35 440.722C211.345 441.338 211.163 441.939 210.825 442.454C210.487 442.969 210.008 443.376 209.445 443.626C208.881 443.876 208.258 443.959 207.649 443.864C207.04 443.769 206.471 443.502 206.01 443.092C205.55 442.683 205.217 442.15 205.051 441.557C204.886 440.964 204.895 440.336 205.077 439.747C205.26 439.159 205.608 438.636 206.081 438.24C206.553 437.845 207.129 437.593 207.741 437.516C209.147 438.332 210.374 439.422 211.35 440.722V440.722Z" fill="black"/>
<path opacity="0.1" d="M211.586 454.97C210.544 456.451 209.182 457.68 207.602 458.564C206.021 459.448 204.261 459.965 202.453 460.078C202.453 459.912 202.453 459.741 202.453 459.544C202.454 458.482 202.749 457.442 203.307 456.538C203.865 455.635 204.663 454.904 205.612 454.427C206.561 453.95 207.624 453.746 208.683 453.837C209.741 453.928 210.754 454.311 211.607 454.944L211.586 454.97Z" fill="black"/>
<path d="M552.601 404.766C553.144 404.766 553.585 404.326 553.585 403.783C553.585 403.241 553.144 402.8 552.601 402.8C552.058 402.8 551.617 403.241 551.617 403.783C551.617 404.326 552.058 404.766 552.601 404.766Z" fill="white"/>
<path d="M318 357.02V474.01V591M242.195 357.02V516.1M496 357.02L318 -60L140 357.02M393.805 357.02V516.1" stroke="black" stroke-linecap="round" stroke-linejoin="round"/>
<path d="M237 472H279.615C277.234 465.977 272.147 453.893 264.328 425.45L237.014 472H237ZM380.672 425.45C372.853 453.893 367.766 465.977 365.385 472H408L380.7 425.45H380.672ZM322.459 364.289C314.218 364.289 306.314 361.99 300.486 357.898C294.658 353.805 291.384 348.255 291.384 342.467C291.384 336.68 294.658 331.13 300.486 327.037C306.314 322.945 314.218 320.646 322.459 320.646C330.701 320.646 338.605 322.945 344.433 327.037C350.26 331.13 353.534 336.68 353.534 342.467C353.534 348.255 350.26 353.805 344.433 357.898C338.605 361.99 330.701 364.289 322.459 364.289ZM383.676 336.017C380.321 267.152 322.459 244 322.459 244C322.459 244 264.585 267.142 261.243 336.017C258.132 399.857 291.926 472 291.926 472H352.993C352.993 472 386.787 399.857 383.676 336.017Z" fill="#EEEEEE"/>
<defs>
<linearGradient id="paint0_linear_0_1" x1="190.362" y1="547.434" x2="190.362" y2="532.694" gradientUnits="userSpaceOnUse">
<stop stop-color="#808080" stop-opacity="0.25"/>
<stop offset="0.54" stop-color="#808080" stop-opacity="0.12"/>
<stop offset="1" stop-color="#808080" stop-opacity="0.1"/>
</linearGradient>
<linearGradient id="paint1_linear_0_1" x1="9653.01" y1="7446.99" x2="9653.01" y2="7163.51" gradientUnits="userSpaceOnUse">
<stop stop-color="#808080" stop-opacity="0.25"/>
<stop offset="0.54" stop-color="#808080" stop-opacity="0.12"/>
<stop offset="1" stop-color="#808080" stop-opacity="0.1"/>
</linearGradient>
<linearGradient id="paint2_linear_0_1" x1="86863.3" y1="251121" x2="86863.3" y2="15395.2" gradientUnits="userSpaceOnUse">
<stop stop-color="#808080" stop-opacity="0.25"/>
<stop offset="0.54" stop-color="#808080" stop-opacity="0.12"/>
<stop offset="1" stop-color="#808080" stop-opacity="0.1"/>
</linearGradient>
<linearGradient id="paint3_linear_0_1" x1="269.009" y1="487.672" x2="269.009" y2="522.078" gradientUnits="userSpaceOnUse">
<stop stop-color="#E0E0E0"/>
<stop offset="0.31" stop-color="#FCCC63"/>
<stop offset="0.77" stop-color="#F55F44"/>
</linearGradient>
<linearGradient id="paint4_linear_0_1" x1="7077.5" y1="22099.4" x2="7077.5" y2="24315.1" gradientUnits="userSpaceOnUse">
<stop stop-color="#E0E0E0"/>
<stop offset="0.31" stop-color="#FCCC63"/>
<stop offset="0.77" stop-color="#F55F44"/>
</linearGradient>
<linearGradient id="paint5_linear_0_1" x1="7715.96" y1="22099.4" x2="7715.96" y2="24315.1" gradientUnits="userSpaceOnUse">
<stop stop-color="#E0E0E0"/>
<stop offset="0.31" stop-color="#FCCC63"/>
<stop offset="0.77" stop-color="#F55F44"/>
</linearGradient>
<linearGradient id="paint6_linear_0_1" x1="8746.3" y1="22099.4" x2="8746.3" y2="24315.2" gradientUnits="userSpaceOnUse">
<stop stop-color="#DA6565"/>
<stop offset="0.31" stop-color="#FCCC63"/>
<stop offset="0.77" stop-color="#F55F44"/>
</linearGradient>
<linearGradient id="paint7_linear_0_1" x1="28531.3" y1="15345.4" x2="28531.3" y2="12826.8" gradientUnits="userSpaceOnUse">
<stop stop-color="#808080" stop-opacity="0.25"/>
<stop offset="0.54" stop-color="#808080" stop-opacity="0.12"/>
<stop offset="1" stop-color="#808080" stop-opacity="0.1"/>
</linearGradient>
<linearGradient id="paint8_linear_0_1" x1="8694.98" y1="15253.6" x2="8694.98" y2="14025" gradientUnits="userSpaceOnUse">
<stop stop-color="#808080" stop-opacity="0.25"/>
<stop offset="0.54" stop-color="#808080" stop-opacity="0.12"/>
<stop offset="1" stop-color="#808080" stop-opacity="0.1"/>
</linearGradient>
</defs>
</svg>
