<svg width="1366" height="92" viewBox="0 0 1366 92" fill="none" xmlns="http://www.w3.org/2000/svg">
<path fill-rule="evenodd" clip-rule="evenodd" d="M1366 0H0V46.6234C80.8726 79.7954 177.661 103.332 270.502 85.4662C336.013 97.0447 384.264 78.6007 429.058 61.4783C489.152 38.5072 543.023 17.915 624 75.3877C738.96 81.9251 793.285 83.4864 886 75.3876C922.938 72.1611 980.5 75.3475 1038.14 78.5382C1116.68 82.8861 1195.37 87.2419 1222.2 75.3877C1239.48 67.749 1250.03 58.8165 1260.52 49.9279C1274.36 38.2064 1288.11 26.5613 1317.11 18.0602C1331.13 13.9507 1347.71 10.4299 1366 7.31209V0Z" fill="#F7EFF5"/>
</svg>
